# xmcd
#
# Track frame offsets: 
#        150
#        13053
#        13785
#        23467
#        24601
#        37210
#        55201
#        66885
#        84582
#        98745
#        113139
#        115572
#        129343
#        148366
#        162546
#        163257
#        175942
#        207328
#        209931
#
# Disc length: 2851 seconds
#
# Revision: 0
# Processed by: cddbd v1.5.2PL0 Copyright (c) Steve Scherf et al.
# Submitted via: ExactAudioCopy v0.99pb4
#
DISCID=140b2113
DTITLE=The Saddle Tramps - Whiskey Dick
DYEAR=2005
DGENRE=Country
TTITLE0=Shakin' In My Boots
TTITLE1=Sweatin'
TTITLE2=Home Sweet Homo
TTITLE3=New Diet
TTITLE4=Film At Eleven
TTITLE5=Truck Drivin' Lover
TTITLE6=Cindy Brady (Have My Baby)
TTITLE7=Liquored Up and Feelin' Down
TTITLE8=Bye Bi Baby
TTITLE9=El Boracho
TTITLE10=College
TTITLE11=Spoiled Rich Kid
TTITLE12=The Mullet Song
TTITLE13=Piggy Sue
TTITLE14=White Trash Intro
TTITLE15=White Trash Chicks On Speed
TTITLE16=Rebel Yell (1st Take)
TTITLE17=Vag For Men
TTITLE18=Habits
EXTD=
EXTT0=
EXTT1=
EXTT2=
EXTT3=
EXTT4=
EXTT5=
EXTT6=
EXTT7=
EXTT8=
EXTT9=
EXTT10=
EXTT11=
EXTT12=
EXTT13=
EXTT14=
EXTT15=
EXTT16=
EXTT17=
EXTT18=
PLAYORDER=
